<svg xmlns="http://www.w3.org/2000/svg" viewBox="0 0 512 512">
  <rect width="512" height="512" rx="96" fill="#04756f"/>
  <path fill="#e3f4f1" d="M122 324c42-22 56-74 101-98 31-17 70-12 96 12 18 17 42 22 65 13l38-15c-4 47-39 82-87 93l-42 10c-21 5-39 18-50 36l-29 49h-58l38-75c-24 5-49 2-72-8z"/>
  <path fill="#fff3d7" d="M337 132c34 0 61 27 61 61s-27 61-61 61-61-27-61-61 27-61 61-61z"/>
  <path fill="#04756f" d="M320 190c0-16 12-28 29-28 12 0 23 6 29 16l-22 10c-2-4-5-6-9-6-5 0-9 4-9 9 0 16 40 7 40 38 0 18-14 31-34 31-15 0-28-8-34-21l23-9c3 6 7 9 13 9 7 0 11-4 11-10 0-16-37-7-37-39z"/>
  <path fill="#ffffff" d="M100 162h131v28H100zm0 55h91v28h-91zm0 55h64v28h-64z"/>
</svg>
